<svg id="Artwork" xmlns="http://www.w3.org/2000/svg" xmlns:xlink="http://www.w3.org/1999/xlink" viewBox="0 0 275.78 249.51"><defs><style>.cls-1{fill:url(#linear-gradient);}.cls-2{fill:url(#linear-gradient-2);}.cls-3{fill:#0064ff;}.cls-4{fill:url(#linear-gradient-3);}.cls-5{fill:url(#linear-gradient-4);}.cls-6{fill:url(#linear-gradient-5);}.cls-7{fill:url(#linear-gradient-6);}.cls-8{fill:url(#linear-gradient-7);}.cls-9{fill:url(#linear-gradient-8);}</style><linearGradient id="linear-gradient" x1="35.33" y1="242.18" x2="76.5" y2="167.06" gradientUnits="userSpaceOnUse"><stop offset="0.11" stop-color="#0064ff"/><stop offset="0.15" stop-color="#0e7ff7"/><stop offset="0.24" stop-color="#26adea"/><stop offset="0.31" stop-color="#38d1df"/><stop offset="0.39" stop-color="#45ead8"/><stop offset="0.45" stop-color="#4dfad4"/><stop offset="0.51" stop-color="#50ffd2"/><stop offset="1" stop-color="#50ffd2" stop-opacity="0"/></linearGradient><linearGradient id="linear-gradient-2" x1="259.24" y1="216.79" x2="166.68" y2="138.24" gradientUnits="userSpaceOnUse"><stop offset="0.19" stop-color="#0064ff"/><stop offset="0.2" stop-color="#0267fe"/><stop offset="0.3" stop-color="#2497eb"/><stop offset="0.4" stop-color="#3cb9dd"/><stop offset="0.47" stop-color="#4bced5"/><stop offset="0.52" stop-color="#50d6d2"/><stop offset="1" stop-color="#50ffd2" stop-opacity="0"/></linearGradient><linearGradient id="linear-gradient-3" x1="79.09" y1="60.27" x2="160.85" y2="189.71" gradientUnits="userSpaceOnUse"><stop offset="0" stop-color="#0064ff"/><stop offset="0.03" stop-color="#0975fa"/><stop offset="0.12" stop-color="#22a6ec"/><stop offset="0.2" stop-color="#36cde1"/><stop offset="0.28" stop-color="#44e8d9"/><stop offset="0.35" stop-color="#4df9d4"/><stop offset="0.4" stop-color="#50ffd2"/><stop offset="0.71" stop-color="#50ffd2" stop-opacity="0"/></linearGradient><linearGradient id="linear-gradient-4" x1="106.34" y1="-39.88" x2="-27.04" y2="186.51" gradientUnits="userSpaceOnUse"><stop offset="0" stop-color="#50ffd2"/><stop offset="1" stop-color="#0064ff"/></linearGradient><linearGradient id="linear-gradient-5" x1="120.93" y1="-31.28" x2="-12.45" y2="195.11" xlink:href="#linear-gradient-4"/><linearGradient id="linear-gradient-6" x1="161.8" y1="-7.2" x2="28.42" y2="219.19" xlink:href="#linear-gradient-4"/><linearGradient id="linear-gradient-7" x1="217.99" y1="25.91" x2="84.61" y2="252.3" xlink:href="#linear-gradient-4"/><linearGradient id="linear-gradient-8" x1="274.45" y1="59.17" x2="141.07" y2="285.56" xlink:href="#linear-gradient-4"/></defs><title>IBM_Cloud_Icon_BlueTeal_Pos_RGB-Final</title><path class="cls-1" d="M67.92,245.79h-.3c-.88,0-1.77.07-2.66.07a50.17,50.17,0,1,1,50.17-50.17c0,.13,0,.25,0,.38l10.28.08a60.55,60.55,0,0,0-60-60.93h-.46l-1.3,0h0a60.12,60.12,0,0,0-11.3,1.27l0,0A60.48,60.48,0,0,0,64.47,256.18h3.45Z" transform="translate(-4.44 -6.67)"/><path class="cls-2" d="M225.84,115.19h0c-.77-.19-1.56-.36-2.34-.52a71.4,71.4,0,0,0-14.44-1.48l-2.8,0a71.68,71.68,0,0,0-62.18,40.68h11.77a61.46,61.46,0,0,1,9.91-12.75,60.8,60.8,0,0,1,43.37-17.59c2,0,4,.15,5.93.36l.28,0,.82.08v0a61.14,61.14,0,0,1-7.5,121.82h-.85v10.39h.85a71.54,71.54,0,0,0,17.16-141Z" transform="translate(-4.44 -6.67)"/><rect class="cls-3" x="63.48" y="239.12" width="139.91" height="10.39"/><path class="cls-4" d="M143.32,79.48A82.48,82.48,0,1,1,60.84,162a82.57,82.57,0,0,1,82.48-82.48m0-11A93.48,93.48,0,1,0,236.81,162a93.48,93.48,0,0,0-93.48-93.48Z" transform="translate(-4.44 -6.67)"/><path class="cls-5" d="M13.81,88.93l24.91,14.38a5.19,5.19,0,1,0,5.19-9L19,79.94a5.19,5.19,0,1,0-5.19,9Z" transform="translate(-4.44 -6.67)"/><path class="cls-6" d="M79.41,58.82a5.19,5.19,0,0,0,9-5.19L74,28.71a5.19,5.19,0,0,0-9,5.19Z" transform="translate(-4.44 -6.67)"/><path class="cls-7" d="M142.1,45.82a5.19,5.19,0,0,0,5.19-5.19V11.86a5.19,5.19,0,0,0-10.39,0V40.63A5.19,5.19,0,0,0,142.1,45.82Z" transform="translate(-4.44 -6.67)"/><path class="cls-8" d="M197.69,60.72a5.19,5.19,0,0,0,7.09-1.9l14.38-24.91a5.19,5.19,0,0,0-9-5.19L195.79,53.62A5.19,5.19,0,0,0,197.69,60.72Z" transform="translate(-4.44 -6.67)"/><path class="cls-9" d="M242.88,104a5.17,5.17,0,0,0,2.59-.7l24.91-14.38a5.19,5.19,0,1,0-5.19-9L240.28,94.32a5.19,5.19,0,0,0,2.6,9.69Z" transform="translate(-4.44 -6.67)"/></svg>